<svg xmlns="http://www.w3.org/2000/svg" viewBox="0 0 24 24" width="32" height="32" role="img" aria-label="Haraka Admin">
  <defs>
    <linearGradient id="g" x1="0" y1="0" x2="24" y2="24" gradientUnits="userSpaceOnUse">
      <stop stop-color="#FFA724" />
      <stop offset="1" stop-color="#FF6B00" />
    </linearGradient>
  </defs>
  <rect width="24" height="24" rx="6" fill="url(#g)" />
  <g transform="translate(2.4 2.4) scale(0.8)">
    <path
      d="M4 14a1 1 0 0 1-.78-1.63l9.9-10.2a.5.5 0 0 1 .86.46l-1.92 6.02A1 1 0 0 0 13 10h7a1 1 0 0 1 .78 1.63l-9.9 10.2a.5.5 0 0 1-.86-.46l1.92-6.02A1 1 0 0 0 11 14z"
      fill="#fff"
    />
  </g>
</svg>
